<svg width="402.531" height="106.397" xmlns="http://www.w3.org/2000/svg">
   <defs>
      <clipPath id="a">
         <path d="M2414 340h222v211h-222zm0 0" />
      </clipPath>
      <clipPath id="b">
         <path
            d="m2556.238 413.29-31.437-73.11-31.45 73.11-79.25 7.312 59.82 52.507-17.542 77.63 68.422-40.669 68.41 40.668-17.531-77.629 59.82-52.507zm0 0" />
      </clipPath>
      <clipPath id="c">
         <path
            d="m2556.238 413.29-31.437-73.11-31.45 73.11-79.25 7.312 59.82 52.507-17.542 77.63 68.422-40.669 68.41 40.668-17.531-77.629 59.82-52.507-79.262-7.313" />
      </clipPath>
      <clipPath id="d">
         <path d="M2647 239h328v312h-328zm0 0" />
      </clipPath>
      <clipPath id="e">
         <path
            d="m2857.469 347.64-46.457-108.038-46.473 108.039-117.11 10.808 88.4 77.57-25.919 114.72 101.102-60.09 101.09 60.09-25.91-114.72 88.386-77.57zm0 0" />
      </clipPath>
      <clipPath id="f">
         <path
            d="m2857.469 347.64-46.457-108.038-46.473 108.039-117.11 10.808 88.4 77.57-25.919 114.72 101.102-60.09 101.09 60.09-25.91-114.72 88.386-77.57-117.11-10.808" />
      </clipPath>
      <clipPath id="g">
         <path d="M3395 239h328v312h-328zm0 0" />
      </clipPath>
      <clipPath id="h">
         <path
            d="m3605.39 347.64-46.46-108.038-46.47 108.039-117.108 10.808 88.386 77.57-25.91 114.72 101.102-60.09 101.09 60.09-25.91-114.72 88.39-77.57zm0 0" />
      </clipPath>
      <clipPath id="i">
         <path
            d="m3605.39 347.64-46.46-108.038-46.47 108.039-117.108 10.808 88.386 77.57-25.91 114.72 101.102-60.09 101.09 60.09-25.91-114.72 88.39-77.57-117.11-10.808" />
      </clipPath>
      <clipPath id="j">
         <path d="M2963 148h424v403h-424zm0 0" />
      </clipPath>
      <clipPath id="k">
         <path
            d="m3234.84 288.25-60.05-139.64-60.06 139.64-151.351 13.96 114.242 100.27-33.492 148.258 130.66-77.668 130.66 77.668-33.488-148.258 114.238-100.27zm0 0" />
      </clipPath>
      <clipPath id="l">
         <path
            d="m3234.84 288.25-60.05-139.64-60.06 139.64-151.351 13.96 114.242 100.27-33.492 148.258 130.66-77.668 130.66 77.668-33.488-148.258 114.238-100.27-151.36-13.96" />
      </clipPath>
      <clipPath id="m">
         <path d="M3714 340h222v211h-222zm0 0" />
      </clipPath>
      <clipPath id="n">
         <path
            d="m3935.48 420.602-79.25-7.313-31.449-73.11-31.441 73.11-79.262 7.313 59.82 52.507-17.527 77.63 68.41-40.669 68.418 40.668-17.539-77.629zm0 0" />
      </clipPath>
      <clipPath id="o">
         <path
            d="m3935.48 420.602-79.25-7.313-31.449-73.11-31.441 73.11-79.262 7.313 59.82 52.507-17.527 77.63 68.41-40.669 68.418 40.668-17.539-77.629 59.82-52.507" />
      </clipPath>
   </defs>
   <g clip-path="url(#a)" transform="matrix(.26458 0 0 .26458 -638.731 -39.32)">
      <g clip-path="url(#b)">
         <g clip-path="url(#c)">
            <path fill="#ffc800" d="M2414.102 340.18v210.558H2635.5V340.18Zm0 0" />
         </g>
      </g>
   </g>
   <g clip-path="url(#d)" transform="matrix(.26458 0 0 .26458 -638.731 -39.32)">
      <g clip-path="url(#e)">
         <g clip-path="url(#f)">
            <path fill="#ffc800" d="M2647.43 239.602v311.136h327.148V239.602Zm0 0" />
         </g>
      </g>
   </g>
   <g clip-path="url(#g)" transform="matrix(.26458 0 0 .26458 -638.731 -39.32)">
      <g clip-path="url(#h)">
         <g clip-path="url(#i)">
            <path fill="#ffc800" d="M3395.352 239.602v311.136H3722.5V239.602Zm0 0" />
         </g>
      </g>
   </g>
   <g clip-path="url(#j)" transform="matrix(.26458 0 0 .26458 -638.731 -39.32)">
      <g clip-path="url(#k)">
         <g clip-path="url(#l)">
            <path fill="#ffc800" d="M2963.379 148.61v402.128h422.82V148.61Zm0 0" />
         </g>
      </g>
   </g>
   <g clip-path="url(#m)" transform="matrix(.26458 0 0 .26458 -638.731 -39.32)">
      <g clip-path="url(#n)">
         <g clip-path="url(#o)">
            <path fill="#ffc800" d="M3714.078 340.18v210.558h221.403V340.18Zm0 0" />
         </g>
      </g>
   </g>
</svg>