<svg xmlns="http://www.w3.org/2000/svg" xmlns:xlink="http://www.w3.org/1999/xlink" height="24" width="24" xmlns:v="https://vecta.io/nano"><linearGradient id="A" x1="4.546689%" x2="36.948096%" y1="56.05117%" y2="41.799482%"><stop offset="0" stop-color="#a52714" stop-opacity=".6"/><stop offset=".66" stop-color="#a52714" stop-opacity="0"/></linearGradient><linearGradient id="B"><stop offset="0" stop-color="#3e2723" stop-opacity=".2"/><stop offset="1" stop-color="#3e2723" stop-opacity="0"/></linearGradient><radialGradient id="C" cx="-.157205%" cy=".103627%" gradientTransform="matrix(1 0 0 .583251 0 .000432)" r="136.321397%" xlink:href="#B"/><linearGradient id="D" x1="77.759414%" x2="38.783313%" y1="87.775828%" y2="66.355316%"><stop offset="0" stop-color="#055524" stop-opacity=".4"/><stop offset=".33" stop-color="#055524" stop-opacity="0"/></linearGradient><radialGradient id="E" cx="10.329727%" cy="-12.214834%" gradientTransform="matrix(1 0 0 .496419 0 -.061511)" r="226.352396%"><stop offset="0" stop-color="#263238" stop-opacity=".2"/><stop offset="1" stop-color="#263238" stop-opacity="0"/></radialGradient><linearGradient id="F" x1="40.99375%" x2="49.249713%" y1="-4.840625%" y2="45.414063%"><stop offset="0" stop-color="#ea6100" stop-opacity=".3"/><stop offset=".66" stop-color="#ea6100" stop-opacity="0"/></linearGradient><radialGradient id="G" cx="-4.872449%" cy="-.24821%" gradientTransform="matrix(.267219 0 0 1 -.035704 0)" r="401.326969%" xlink:href="#B"/><radialGradient id="H" cx="14.935227%" cy="13.644318%" r="100.426136%"><stop offset="0" stop-color="#fff" stop-opacity=".1"/><stop offset="1" stop-color="#fff" stop-opacity="0"/></radialGradient><mask id="I" fill="#fff"><circle cx="10" cy="10" fill-rule="evenodd" r="10"/></mask><g fill="none" transform="translate(2 2)"><g mask="url(#I)"><g transform="translate(1.477)"><use xlink:href="#K" fill="#db4437"/><use xlink:href="#K" fill="url(#A)"/><path d="M4.694 12.233L.168 4.47l-.066.114 4.493 7.705z" fill="#3e2723" fill-opacity=".15"/><path d="M.11 4.597l4.067 4.067c-.13.423-.2.871-.2 1.336 0 .789.201 1.531.555 2.178z" fill="url(#C)"/><path d="M.108 4.594l4.477 7.678c.791 1.357 2.256 2.273 3.938 2.273 1.604 0 3.012-.835 3.82-2.09l.111-.182h.007v.114c-.792 1.358-2.257 2.273-3.937 2.273-1.605 0-3.013-.835-3.822-2.09l-.111-.182h-.005L.073 4.649z" fill="#fff" fill-opacity=".1"/></g></g><g mask="url(#I)"><g transform="translate(0 3.818)"><use xlink:href="#L" fill="#0f9d58"/><use xlink:href="#L" fill="url(#D)"/><path d="M13.845 8.606l-.094-.055-4.363 7.631h.131l4.33-7.573z" fill="#263238" fill-opacity=".15"/><path d="M9.526 16.169l2.382-8.886 2.03 1.172z" fill="url(#E)"/><path d="M13.977 8.606c.386-.668.61-1.441.61-2.268a4.53 4.53 0 0 0-.213-1.374c.108.389.17.797.17 1.219 0 .827-.224 1.6-.61 2.268l.002.005-4.418 7.727h.132L13.98 8.61z" fill="#fff" fill-opacity=".2"/></g></g><g mask="url(#I)"><g transform="translate(5.432 4.455)"><use xlink:href="#M" fill="#ffcd40"/><use xlink:href="#M" fill="url(#F)"/><path d="M4.568 1v2.381L13.477 1z" fill="url(#G)"/><g fill="#3e2723"><path d="M4.568.886h8.85l.059.113L4.568 1C2.13 1 .139 2.921.028 5.331l-.005.214v-.114c0-2.439 1.921-4.429 4.331-4.541z" fill-opacity=".2"/><path d="M4.682 1c-.019 0-.037.002-.057.003 2.484.031 4.489 2.051 4.489 4.542s-2.005 4.511-4.489 4.542c.019 0 .037.003.057.003 2.51 0 4.545-2.035 4.545-4.545S7.192 1 4.682 1z" opacity=".1"/></g></g></g><g mask="url(#I)"><g transform="translate(5.455 5.455)"><circle cx="4.545" cy="4.545" fill="#f1f1f1" r="4.545"/><circle cx="4.545" cy="4.545" fill="#4285f4" r="3.636"/></g></g><path d="M10 .114a10 10 0 0 1 9.999 9.943L20 10c0-5.523-4.477-10-10-10S0 4.477 0 10c0 .019.001.037.001.057A10 10 0 0 1 10 .114z" fill="#fff" fill-opacity=".2" mask="url(#I)"/><path d="M10 19.886a10 10 0 0 0 9.999-9.943L20 10c0 5.523-4.477 10-10 10S0 15.523 0 10c0-.019.001-.037.001-.057A10 10 0 0 0 10 19.886z" fill="#3e2723" fill-opacity=".15" mask="url(#I)"/><circle cx="10" cy="10" fill="url(#H)" r="10"/></g><defs ><path id="K" d="M8.523 0a10 10 0 0 1 8.909 5.454H8.523c-2.51 0-4.545 2.035-4.545 4.545 0 .789.201 1.531.555 2.178l.054.095H.11L.109 4.594C1.888 1.83 4.992 0 8.523 0z"/><path id="L" d="M1.586.775l4.477 7.679A4.54 4.54 0 0 0 10 10.727c1.682 0 3.151-.914 3.937-2.272v3.309L9.53 16.171C4.225 15.925 0 11.547 0 6.182 0 4.19.582 2.334 1.586.775z"/><path id="M" d="M13.477.999c.697 1.364 1.091 2.909 1.091 4.546 0 5.523-4.477 10-10 10a10.17 10.17 0 0 1-.473-.011l4.41-7.716c.387-.669.608-1.445.608-2.273C9.114 3.035 7.079 1 4.568 1z"/></defs></svg>