<svg viewBox="0 0 400 200" xmlns="http://www.w3.org/2000/svg">
    <defs>
        <clipPath id="circleClip">
            <circle cx="200" cy="0" r="200" />
        </clipPath>
    </defs>

    <circle id="circle" fill="#2c1e6a" cx="200" cy="0" r="200" />

    <g clip-path="url(#circleClip)">

        <path transform="translate(0 -60)" fill-rule="evenodd" fill="#33256f"
            d="M365.899,183.898 L316.343,90.173 L316.343,177.214 L282.633,172.667 L282.633,32.786 L316.343,37.333 L365.801,131.045 L365.801,44.004 L399.415,48.537 L399.415,188.418 L365.899,183.898 ZM317.258,194.884 L350.679,199.391 L321.002,335.269 L286.044,330.554 L267.318,248.290 L248.974,325.554 L214.114,320.852 L184.342,176.956 L217.858,181.477 L233.897,271.353 L253.105,186.231 L281.724,190.091 L301.218,280.433 L317.258,194.884 ZM229.180,158.918 C219.863,163.335 209.253,164.737 197.344,163.131 C185.436,161.525 174.871,157.361 165.652,150.637 C156.432,143.915 149.244,135.110 144.091,124.225 C138.938,113.340 136.234,101.278 135.978,88.040 L135.978,80.158 C135.978,66.445 138.490,54.687 143.515,44.885 C148.539,35.083 155.743,27.963 165.124,23.525 C174.503,19.086 185.179,17.674 197.152,19.289 C208.997,20.887 219.561,25.132 228.844,32.024 C238.128,38.916 245.347,47.917 250.500,59.026 C255.653,70.136 258.263,82.426 258.329,95.892 L258.329,102.334 C258.329,115.986 255.799,127.723 250.741,137.551 C245.683,147.380 238.497,154.502 229.180,158.918 ZM224.043,91.798 C224.043,77.895 221.720,67.025 217.079,59.191 C212.439,51.358 205.795,46.857 197.152,45.691 C180.249,43.411 171.317,54.892 170.359,80.135 L170.262,90.404 C170.262,104.118 172.533,114.963 177.079,122.945 C181.625,130.927 188.381,135.520 197.344,136.729 C205.859,137.878 212.423,135.145 217.033,128.526 C221.643,121.907 223.979,111.811 224.043,98.237 L224.043,91.798 ZM77.300,35.104 C73.266,30.842 67.120,28.152 58.861,27.038 C50.474,25.907 44.327,28.220 40.422,33.970 C36.516,39.724 34.467,49.474 34.275,63.223 L34.275,73.121 C34.275,88.049 36.147,98.971 39.894,105.882 C43.638,112.795 50.089,116.868 59.245,118.103 C66.992,119.148 72.916,118.122 77.013,115.021 C81.111,111.920 83.288,106.413 83.544,98.499 L117.059,103.020 C116.611,112.696 113.986,120.938 109.184,127.752 C104.383,134.566 97.645,139.437 88.968,142.367 C80.291,145.296 70.385,146.007 59.245,144.505 C40.870,142.026 26.400,134.087 15.836,120.686 C5.272,107.285 -0.009,89.664 -0.009,67.823 L-0.009,60.905 C-0.009,47.202 2.375,35.529 7.144,25.892 C11.913,16.256 18.781,9.241 27.745,4.847 C36.708,0.452 47.080,-0.952 58.861,0.637 C75.827,2.925 89.465,9.233 99.773,19.558 C110.081,29.883 115.940,42.985 117.349,58.867 L83.736,54.333 C83.480,45.776 81.334,39.366 77.300,35.104 ZM75.425,168.854 C84.804,164.415 95.480,163.003 107.453,164.618 C119.298,166.215 129.862,170.461 139.145,177.353 C148.429,184.245 155.649,193.246 160.801,204.354 C165.954,215.465 168.564,227.755 168.630,241.221 L168.630,247.663 C168.630,261.314 166.100,273.052 161.042,282.880 C155.984,292.709 148.798,299.831 139.481,304.247 C130.164,308.664 119.554,310.066 107.645,308.460 C95.737,306.854 85.172,302.690 75.953,295.966 C66.733,289.244 59.545,280.439 54.392,269.554 C49.239,258.669 46.535,246.607 46.279,233.369 L46.279,225.487 C46.279,211.774 48.791,200.016 53.816,190.214 C58.840,180.412 66.044,173.292 75.425,168.854 ZM87.380,268.274 C91.926,276.256 98.682,280.849 107.645,282.058 C116.161,283.207 122.724,280.474 127.334,273.855 C131.944,267.236 134.280,257.140 134.344,243.566 L134.344,237.127 C134.344,223.224 132.021,212.354 127.380,204.520 C122.740,196.687 116.097,192.186 107.453,191.020 C90.551,188.740 81.618,200.221 80.660,225.464 L80.563,235.733 C80.563,249.446 82.834,260.292 87.380,268.274 Z" />
    </g>


</svg>