<svg xmlns="http://www.w3.org/2000/svg" xmlns:xlink="http://www.w3.org/1999/xlink" width="24" height="24" xmlns:v="https://vecta.io/nano"><defs><linearGradient x1="-5.60741916e-06%" y1="49.9999968%" x2="99.9999936%" y2="49.9999968%" id="A"><stop stop-color="#0c59a4" offset="0%"/><stop stop-color="#114a8b" offset="100%"/></linearGradient><radialGradient cx="93.5609712%" cy="50.8658323%" fx="93.5609712%" fy="50.8658323%" r="82.4234834%" gradientTransform="translate(0.935610,0.508658),scale(0.862984,1.000000),rotate(175.919238),translate(-0.935610,-0.508658)" id="B"><stop stop-opacity="0" offset="0%"/><stop stop-opacity=".53" offset="46.0004569%"/><stop offset="100%"/></radialGradient><linearGradient x1="76.6896363%" y1="24.818102%" x2="33.2715108%" y2="83.1757523%" id="C"><stop stop-color="#1b9de2" offset="0%"/><stop stop-color="#1595df" offset="16.164%"/><stop stop-color="#0680d7" offset="66.749%"/><stop stop-color="#0078d4" offset="100%"/></linearGradient><radialGradient cx="46.984173%" cy="43.095273%" fx="46.984173%" fy="43.095273%" r="102.386366%" gradientTransform="translate(0.469842,0.430953),scale(1.000000,0.810392),rotate(90.378400),translate(-0.469842,-0.430953)" id="D"><stop stop-opacity="0" offset="0%"/><stop stop-opacity=".5" offset="35.4312143%"/><stop offset="100%"/></radialGradient><radialGradient cx="9.85498403%" cy="27.4531651%" fx="9.85498403%" fy="27.4531651%" r="151.447763%" gradientTransform="translate(0.098550,0.274532),scale(0.665999,1.000000),rotate(24.115768),translate(-0.098550,-0.274532)" id="E"><stop stop-color="#35c1f1" offset="0%"/><stop stop-color="#34c1ed" offset="11.079%"/><stop stop-color="#2fc2df" offset="23.164%"/><stop stop-color="#2bc3d2" offset="31.446%"/><stop stop-color="#36c752" offset="100%"/></radialGradient><radialGradient cx="100%" cy="57.2319276%" fx="100%" fy="57.2319276%" r="57.0923688%" gradientTransform="translate(1.000000,0.572319),scale(0.665999,1.000000),rotate(73.674707),translate(-1.000000,-0.572319)" id="F"><stop stop-color="#66eb6e" offset="0%"/><stop stop-color="#66eb6e" stop-opacity="0" offset="100%"/></radialGradient><path id="G" d="M18.051 14.885a7.3 7.3 0 0 1-.823.368 7.97 7.97 0 0 1-2.805.505c-3.697 0-6.917-2.543-6.917-5.806 0-.918.531-1.713 1.283-2.132-3.343.14-4.203 3.625-4.203 5.666 0 5.771 5.319 6.357 6.466 6.357.618 0 1.55-.18 2.112-.356l.102-.035c2.169-.748 3.999-2.219 5.202-4.127.173-.274-.131-.591-.417-.441h0z"/><path id="H" d="M11.9 11.629c-.063.082-.258.195-.258.442 0 .203.133.4.369.565 1.123.784 3.241.678 3.247.678a4.65 4.65 0 0 0 2.365-.655 4.8 4.8 0 0 0 .885-.664c.918-.872 1.477-2.101 1.493-3.467.02-1.751-.622-2.915-.886-3.431C17.458 1.862 13.884 0 9.998 0A10 10 0 0 0 0 9.859c.037-2.855 2.875-5.16 6.247-5.16.273 0 1.833.027 3.282.787 1.276.67 1.945 1.479 2.41 2.282.483.834.569 1.886.569 2.306s-.212 1.041-.609 1.555h0z"/></defs><g transform="translate(2 2)"><use xlink:href="#G" fill="url(#A)"/><use xlink:href="#G" fill="url(#B)" opacity=".35"/><path d="M8.259 18.86a6.18 6.18 0 0 1-1.776-1.67c-.74-1.039-1.182-2.316-1.182-3.704 0-2.041.951-3.85 2.416-4.995.333-.26.759-.523 1.073-.671.244-.115.661-.323 1.214-.315.918.013 1.612.481 2.007 1.013a2.49 2.49 0 0 1 .497 1.458c0-.016 1.911-6.219-6.254-6.219C2.824 3.756 0 7.012 0 9.867c0 1.811.42 3.257.946 4.378 1.172 2.496 3.345 4.428 6.004 5.279.963.308 1.988.476 3.054.476a9.99 9.99 0 0 0 3.16-.512 5.92 5.92 0 0 1-1.775.273c-1.146 0-2.214-.332-3.13-.9h0z" fill="url(#C)"/><path d="M6.482 17.19c-.74-1.039-1.182-2.316-1.182-3.704 0-2.041.951-3.85 2.416-4.995.333-.26.759-.523 1.073-.671.244-.115.661-.323 1.214-.315.918.013 1.612.481 2.007 1.013a2.49 2.49 0 0 1 .497 1.458c0-.016 1.911-6.219-6.254-6.219C2.824 3.756 0 7.012 0 9.867c0 1.811.42 3.257.946 4.378 1.172 2.496 3.345 4.428 6.004 5.279.963.308 1.988.476 3.054.476a9.99 9.99 0 0 0 3.16-.512 5.92 5.92 0 0 1-1.775.273c-1.146 0-2.214-.332-3.13-.9a6.18 6.18 0 0 1-1.776-1.67z" fill="url(#D)" opacity=".41"/><use xlink:href="#H" fill="url(#E)"/><use xlink:href="#H" fill="url(#F)"/></g></svg>