<svg xmlns="http://www.w3.org/2000/svg" height="24" width="24" xmlns:v="https://vecta.io/nano"><radialGradient id="A" cx="86.849664%" cy="30.0273%" gradientTransform="matrix(1 0 0 .362882 0 .191309)" r="241.261868%"><stop offset=".045" stop-color="#ffea00"/><stop offset=".12" stop-color="#ffde00"/><stop offset=".254" stop-color="#ffbf00"/><stop offset=".429" stop-color="#ff8e00"/><stop offset=".769" stop-color="#ff272d"/><stop offset=".872" stop-color="#e0255a"/><stop offset=".953" stop-color="#cc2477"/><stop offset="1" stop-color="#c42482"/></radialGradient><radialGradient id="B" cx="70.827583%" cy="12.392756%" gradientTransform="matrix(1 0 0 .994695 0 .000657)" r="112.62957%"><stop offset="0" stop-color="#00ccda"/><stop offset=".22" stop-color="#0083ff"/><stop offset=".261" stop-color="#007af9"/><stop offset=".33" stop-color="#0060e8"/><stop offset=".333" stop-color="#005fe7"/><stop offset=".438" stop-color="#2639ad"/><stop offset=".522" stop-color="#401e84"/><stop offset="1" stop-color="#4a1475"/></radialGradient><linearGradient id="C" x1="56.517741%" x2="36.808642%" y1="75.219836%" y2="6.805114%"><stop offset="0" stop-color="#000f43" stop-opacity=".4"/><stop offset=".485" stop-color="#001962" stop-opacity=".173"/><stop offset="1" stop-color="#002079" stop-opacity="0"/></linearGradient><radialGradient id="D" cx="147.72731%" cy="-21.66384%" gradientTransform="matrix(.923323 0 0 1 .113273 0)" r="140.235548%"><stop offset=".003" stop-color="#ffea00"/><stop offset=".497" stop-color="#ff272d"/><stop offset="1" stop-color="#c42482"/></radialGradient><radialGradient id="E" cx="135.976%" cy="-52.130746%" gradientTransform="matrix(1 0 0 .541483 0 -.239028)" r="370.47035%"><stop offset=".003" stop-color="#ffe900"/><stop offset=".157" stop-color="#ffaf0e"/><stop offset=".316" stop-color="#ff7a1b"/><stop offset=".472" stop-color="#ff4e26"/><stop offset=".621" stop-color="#ff2c2e"/><stop offset=".762" stop-color="#ff1434"/><stop offset=".892" stop-color="#ff0538"/><stop offset="1" stop-color="#ff0039"/></radialGradient><radialGradient id="F" cx="211.883445%" cy="2.144945%" gradientTransform="matrix(.53347 0 0 1 .9885 0)" r="308.147708%"><stop offset=".003" stop-color="#ff272d"/><stop offset=".497" stop-color="#c42482"/><stop offset=".986" stop-color="#620700"/></radialGradient><radialGradient id="G" cx="62.79465%" cy="45.710582%" gradientTransform="matrix(1 0 0 .95947 0 .018527)" r="70.890499%"><stop offset="0" stop-color="#ffea00"/><stop offset=".231" stop-color="#ffde00"/><stop offset=".365" stop-color="#ffbf00"/><stop offset=".541" stop-color="#ff8e00"/><stop offset=".763" stop-color="#ff272d"/><stop offset=".796" stop-color="#f92433"/><stop offset=".841" stop-color="#e91c45"/><stop offset=".893" stop-color="#cf0e62"/><stop offset="1" stop-color="#b5007f"/></radialGradient><radialGradient id="H" cx="24.953418%" cy=".138232%" gradientTransform="matrix(1 0 0 .396485 0 .000834)" r="249.815176%"><stop offset=".279" stop-color="#ffea00"/><stop offset=".402" stop-color="#fd0"/><stop offset=".63" stop-color="#ffba00"/><stop offset=".856" stop-color="#ff9100"/><stop offset=".933" stop-color="#ff6711"/><stop offset=".994" stop-color="#ff4a1d"/></radialGradient><linearGradient id="I" x1="-82.255548%" x2="121.169039%" y1="64.455333%" y2="29.665906%"><stop offset="0" stop-color="#c42482" stop-opacity=".5"/><stop offset=".474" stop-color="#ff272d" stop-opacity=".5"/><stop offset=".486" stop-color="#ff2c2c" stop-opacity=".513"/><stop offset=".675" stop-color="#ff7a1a" stop-opacity=".72"/><stop offset=".829" stop-color="#ffb20d" stop-opacity=".871"/><stop offset=".942" stop-color="#ffd605" stop-opacity=".964"/><stop offset="1" stop-color="#ffe302"/></linearGradient><linearGradient id="J" x1="52.948151%" x2="36.156761%" y1="94.892989%" y2="5.477759%"><stop offset="0" stop-color="#891551" stop-opacity=".6"/><stop offset="1" stop-color="#c42482" stop-opacity="0"/></linearGradient><linearGradient id="K" x1="27.001161%" x2="48.856905%" y1="6.686413%" y2="47.886061%"><stop offset=".005" stop-color="#891551" stop-opacity=".5"/><stop offset=".484" stop-color="#ff272d" stop-opacity=".5"/><stop offset="1" stop-color="#ff272d" stop-opacity="0"/></linearGradient><linearGradient id="L" x1="47.509014%" x2="50.008615%" y1="56.361967%" y2="47.795682%"><stop offset="0" stop-color="#c42482"/><stop offset=".083" stop-color="#c42482" stop-opacity=".81"/><stop offset=".206" stop-color="#c42482" stop-opacity=".565"/><stop offset=".328" stop-color="#c42482" stop-opacity=".362"/><stop offset=".447" stop-color="#c42482" stop-opacity=".204"/><stop offset=".562" stop-color="#c42482" stop-opacity=".091"/><stop offset=".673" stop-color="#c42482" stop-opacity=".023"/><stop offset=".773" stop-color="#c42482" stop-opacity="0"/></linearGradient><linearGradient id="M" x1="40.898946%" x2="58.827065%" y1="1.647082%" y2="89.460857%"><stop offset="0" stop-color="#fff14f"/><stop offset=".268" stop-color="#ffee4c"/><stop offset=".452" stop-color="#ffe643"/><stop offset=".612" stop-color="#ffd834"/><stop offset=".757" stop-color="#ffc41e"/><stop offset=".892" stop-color="#ffab02"/><stop offset=".902" stop-color="#ffa900"/><stop offset=".949" stop-color="#ffa000"/><stop offset="1" stop-color="#ff9100"/></linearGradient><linearGradient id="N" x1="70.04206%" x2="43.32703%" y1="7.158606%" y2="81.947862%"><stop offset="0" stop-color="#ff8e00"/><stop offset=".04" stop-color="#ff8e00" stop-opacity=".858"/><stop offset=".084" stop-color="#ff8e00" stop-opacity=".729"/><stop offset=".13" stop-color="#ff8e00" stop-opacity=".628"/><stop offset=".178" stop-color="#ff8e00" stop-opacity=".557"/><stop offset=".227" stop-color="#ff8e00" stop-opacity=".514"/><stop offset=".282" stop-color="#ff8e00" stop-opacity=".5"/><stop offset=".389" stop-color="#ff8e00" stop-opacity=".478"/><stop offset=".524" stop-color="#ff8e00" stop-opacity=".416"/><stop offset=".676" stop-color="#ff8e00" stop-opacity=".314"/><stop offset=".838" stop-color="#ff8e00" stop-opacity=".172"/><stop offset="1" stop-color="#ff8e00" stop-opacity="0"/></linearGradient><path d="M17.956 3.861c-.487.567-.713 1.842-.22 3.135s1.25 1.012 1.722 2.331c.622 1.74.333 4.077.333 4.077s.748 2.167 1.27-.135c1.154-4.323-3.104-8.344-3.104-9.408z" fill="url(#A)"/><path d="M12.017 21.81c4.984 0 9.022-4.06 9.022-9.066s-4.038-9.066-9.018-9.066-9.017 4.06-9.017 9.066c-.01 5.011 4.033 9.066 9.013 9.066z" fill="url(#B)"/><path d="M18.777 18.334a5.02 5.02 0 0 1-.612.37 14.31 14.31 0 0 0 .778-1.28c.192-.213.368-.42.512-.643l.232-.403c.507-.913 1.065-2.389 1.081-3.907v-.004-.112c.002-.381-.036-.761-.116-1.133l.011.087-.013-.067.02.122c.104.878.03 1.735-.339 2.367l-.018.027c.191-.96.255-2.02.042-3.081 0 0-.085-.516-.719-2.082-.365-.901-1.013-1.641-1.585-2.179-.502-.621-.958-1.037-1.209-1.302-.525-.553-.745-.967-.835-1.237-.078-.039-1.08-1.012-1.16-1.049-.437.678-1.812 2.798-1.158 4.779.296.898 1.046 1.83 1.831 2.352.034.039.467.509.672 1.568.212 1.094.101 1.948-.336 3.211-.514 1.108-1.831 2.203-3.063 2.315-2.636.239-3.601-1.323-3.601-1.323.942.377 1.983.298 2.616-.093s1.024-.688 1.338-.572.555-.219.334-.564c-.348-.537-.984-.813-1.614-.703-.639.104-1.224.61-2.061.12a1.74 1.74 0 0 1-.157-.103c-.055-.036.179.055.125.014-.163-.088-.451-.281-.526-.35-.012-.011.126.044.114.033-.783-.645-.685-1.08-.66-1.353.02-.218.162-.498.401-.612l.188.111-.076-.154c.009-.004.018-.003.028-.007.095.046.304.165.415.237a.61.61 0 0 1 .19.192s.038-.021.01-.109c-.01-.036-.054-.151-.196-.268l.009.001a1.65 1.65 0 0 1 .241.168c.04-.146.112-.298.096-.571-.01-.192-.005-.241-.039-.315-.03-.064.017-.088.069-.022-.009-.052-.024-.102-.045-.15v-.005c.066-.228 1.387-.822 1.483-.892a1.37 1.37 0 0 0 .389-.423c.074-.117.129-.281.142-.531.007-.18-.076-.299-1.413-.439-.365-.036-.58-.301-.702-.545l-.068-.148a1.18 1.18 0 0 1-.052-.171c.218-.627.586-1.158 1.125-1.559.029-.027-.118.007-.088-.02s.258-.121.301-.142c.052-.024-.221-.14-.462-.112s-.297.057-.428.112c.054-.054.227-.125.187-.125-.264.041-.593.194-.874.368-.001-.03.005-.06.017-.088-.131.056-.452.28-.546.47a.9.9 0 0 0 .005-.11c-.1.083-.19.177-.268.281l-.005.004c-.759-.306-1.428-.326-1.993-.189-.124-.124-.184-.033-.466-.652-.019-.037.015.037 0 0-.046-.12.028.16 0 0L4.883 6.84c-.004.012.349-.1 0 0-.122.035-.114.107-.132.762-.004.05-.001.105-.005.15-.239.304-.401.562-.463.695-.309.532-.649 1.362-.979 2.674.145-.356.321-.698.524-1.024-.274.696-.539 1.79-.592 3.474a9.83 9.83 0 0 1 .255-1.03c-.065 1.397.176 2.792.706 4.087a9.97 9.97 0 0 0 1.037 1.939c1.678 1.765 4.044 2.864 6.664 2.864 2.735 0 5.191-1.197 6.879-3.097z" fill="url(#C)"/><path d="M16.753 19.616c3.31-.383 4.776-3.795 2.894-3.862-1.7-.054-4.462 4.043-2.894 3.862z" fill="url(#D)"/><path d="M19.886 15.057c2.278-1.325 1.684-4.189 1.684-4.189s-.879 1.021-1.476 2.649c-.59 1.612-1.577 2.34-.208 1.54z" fill="url(#E)"/><path d="M12.655 21.31c3.175 1.013 5.904-1.488 4.222-2.324-1.529-.753-5.729 1.844-4.222 2.324z" fill="url(#F)"/><path d="M20.122 16.273c.077-.109.182-.458.274-.614.561-.905.565-1.626.565-1.643.339-1.691.308-2.382.1-3.659-.168-1.028-.901-2.502-1.536-3.211-.654-.731-.193-.493-.827-1.027L17.31 4.648c-2.119-1.772-2.072-2.148-2.031-2.212l-.03.033-.043-.184s-1.159 1.159-1.402 3.089c-.159 1.261.313 2.575.996 3.415a7.75 7.75 0 0 0 1.199 1.179h0c.516.741.8 1.656.8 2.64 0 2.464-1.999 4.462-4.464 4.462a4.48 4.48 0 0 1-.999-.112c-1.163-.222-1.835-.809-2.17-1.207-.192-.228-.274-.395-.274-.395 1.042.373 2.195.295 2.896-.092.706-.392 1.134-.682 1.48-.567s.614-.217.37-.56-.862-.833-1.786-.697c-.707.103-1.355.605-2.281.119a1.96 1.96 0 0 1-.174-.102c-.061-.036.199.055.138.014a4.6 4.6 0 0 1-.582-.347c-.014-.011.14.044.126.033-.866-.639-.758-1.071-.731-1.342a.78.78 0 0 1 .444-.607l.208.11-.084-.153c.01-.004.02-.003.03-.007a5.6 5.6 0 0 1 .459.235c.159.101.21.19.21.19s.042-.021.011-.108c-.011-.036-.06-.15-.217-.266l.01.001c.094.048.183.103.267.166.044-.145.124-.296.107-.566-.011-.19-.006-.239-.043-.313-.033-.063.019-.088.077-.022a.61.61 0 0 0-.05-.149v-.005c.073-.226 1.535-.816 1.642-.884a1.43 1.43 0 0 0 .43-.419c.081-.116.143-.279.157-.526.005-.111-.029-.2-.417-.284-.232-.051-.592-.1-1.147-.152-.404-.036-.642-.298-.777-.541l-.075-.147a1.08 1.08 0 0 1-.058-.17 3.22 3.22 0 0 1 1.246-1.546c.033-.027-.13.007-.098-.02.038-.031.286-.12.333-.141.057-.024-.245-.139-.511-.111s-.329.056-.474.112c.06-.054.251-.124.207-.123-.293.04-.657.193-.967.365-.001-.03.006-.06.019-.088-.145.055-.501.278-.604.466.004-.036.006-.072.006-.109a1.8 1.8 0 0 0-.297.278l-.005.004c-.84-.303-1.58-.323-2.206-.187-.137-.123-.357-.309-.669-.923-.021-.037-.033.076-.049.04-.121-.281-.194-.741-.182-1.058 0 0-.25.114-.458.591l-.088.18c-.011.014.026-.157.02-.147-.036.061-.129.146-.17.256-.028.082-.068.128-.093.229l-.006.009c-.002-.03.007-.124.001-.104a4.8 4.8 0 0 0-.25.607c-.112.367-.241.866-.262 1.516-.005.049-.001.104-.005.149-.264.302-.444.557-.512.69-.342.528-.718 1.351-1.083 2.652.162-.355.356-.696.58-1.016-.303.691-.597 1.775-.655 3.446.074-.346.168-.687.282-1.021a8.65 8.65 0 0 0 .781 4.053c.418.916 1.381 2.777 3.732 4.23h0s.8.596 2.175 1.042l.31.108-.096-.042c.915.274 1.866.414 2.821.415 3.561.003 4.611-1.427 4.611-1.427l.135-.14c-.562.53-1.844.566-2.323.527.818-.24 1.356-.443 2.402-.844l.376-.155.042-.019.076-.035a7.1 7.1 0 0 0 1.428-.894c1.051-.839 1.279-1.658 1.399-2.197-.017.052-.069.172-.105.25-.271.579-.871.934-1.523 1.239.31-.407.598-.831.862-1.269.213-.211.279-.541.438-.763z" fill="url(#G)"/><path d="M18.843 18.28c.428-.472.813-1.013 1.105-1.625.75-1.577 1.91-4.199.996-6.937-.722-2.164-1.713-3.348-2.971-4.504C15.929 3.337 15.359 2.498 15.359 2c0 0-2.36 2.63-1.336 5.374s3.119 2.643 4.506 5.506c1.632 3.369-1.32 7.045-3.761 8.074.149-.033 5.426-1.227 5.704-4.246-.006.056-.125.89-1.627 1.573z" fill="url(#H)"/><path d="M12.007 8.491c.008-.178-.084-.298-1.559-.436-.606-.056-.839-.617-.91-.852-.216.56-.305 1.148-.257 1.859.033.466.346.966.495 1.259l.049-.059c.282-.293 1.462-.74 1.573-.804.122-.077.587-.417.608-.967z" fill="url(#I)"/><path d="M5.518 5.18c-.021-.037-.033.076-.049.04a2.7 2.7 0 0 1-.177-1.057s-.25.114-.458.591l-.088.18c-.011.014.026-.157.02-.147-.036.061-.129.146-.17.252-.034.086-.068.132-.094.239-.008.029.008-.129.001-.109-.482.931-.574 2.34-.523 2.28 1.026-1.096 2.202-1.355 2.202-1.355-.125-.092-.397-.358-.665-.912z" fill="url(#J)"/><path d="M9.411 16.636c-1.417-.605-3.028-1.458-2.967-3.397.083-2.553 2.381-2.049 2.381-2.049-.087.021-.319.186-.401.362-.087.22-.245.717.235 1.238.754.817-1.549 1.938 2.005 4.056.09.049-.833-.029-1.253-.211z" fill="url(#K)"/><path d="M8.907 15.364c1.005.35 2.176.288 2.876-.099.469-.261 1.071-.68 1.442-.576-.321-.127-.564-.186-.856-.2-.05 0-.109-.001-.164-.007a2.77 2.77 0 0 0-.32.018c-.181.017-.381.131-.564.112-.01-.001.177-.077.162-.073-.097.02-.202.024-.312.038l-.201.02c-2.093.178-3.862-1.134-3.862-1.134-.151.507.674 1.51 1.799 1.902z" fill="url(#L)"/><path d="M18.839 18.294c2.117-2.079 3.188-4.605 2.735-7.439 0 0 .181 1.453-.505 2.94.33-1.451.368-3.254-.508-5.122-1.169-2.492-3.09-3.804-3.824-4.351-1.112-.829-1.573-1.673-1.581-1.847-.332.68-1.337 3.012-.108 5.02 1.151 1.881 2.965 2.44 4.234 4.166 2.339 3.179-.444 6.634-.444 6.634z" fill="url(#M)"/><path d="M18.536 12.885c-.74-1.528-1.663-2.195-2.537-2.918l.183.285c.769.819 1.903 2.818 1.079 5.327-1.549 4.723-7.747 2.499-8.397 1.874.263 2.734 4.838 4.042 7.817 2.269 1.695-1.605 3.066-4.333 1.854-6.837z" fill="url(#N)"/></svg>