<svg xmlns="http://www.w3.org/2000/svg" viewBox="0 0 2589.238 3046.852" fill="#884499"><path d="M2197.727 3045.904c-11.68-2.328-16.475-4.298-22.719-9.332-3.42-2.758-8.596-6.68-11.5-8.714-8.217-5.756-17.61-14.385-21.4-19.66-3.52-4.896-5.667-9.266-12.384-25.198-2.086-4.95-4.919-11.475-6.294-14.5a524.788 524.788 0 0 1-5.218-12c-2.808-6.712-15.796-36.294-20.196-46-3.927-8.66-13.229-29.721-17.004-38.5a7578.04 7578.04 0 0 0-17.767-41c-3.125-7.15-8.975-20.65-13.001-30-4.026-9.35-9.206-21.275-11.51-26.5a1073.082 1073.082 0 0 1-8.117-19c-2.16-5.225-4.396-10.325-4.969-11.333-1.417-2.495-42.304-96.148-63.377-145.167a59412.73 59412.73 0 0 0-23.527-54.5c-17.58-40.684-32.356-74.99-60.514-140.5-5.674-13.2-14.67-33.9-19.992-46-8.8-20.008-31.989-72.974-40.06-91.5-1.797-4.125-9.768-22.35-17.713-40.5s-29.41-67.2-47.7-109c-33.936-77.56-36.687-83.828-53.44-121.764-14.578-33.008-30.755-69.7-54.114-122.736-6.42-14.575-12.488-28.3-13.486-30.5-.998-2.2-4.267-9.625-7.265-16.5-2.998-6.875-6.372-14.525-7.498-17-2.155-4.736-13.5-30.43-32.232-73-6.171-14.025-17.2-39-24.508-55.5-12.68-28.628-19.713-44.58-42.99-97.5l-25.513-58c-8.348-18.975-19.924-45.3-25.724-58.5-5.801-13.2-14.706-33.45-19.788-45a85339.03 85339.03 0 0 1-36.67-83.5c-6.164-14.055-24.02-55.701-34.89-81.372-3.462-8.18-7.03-15.777-7.925-16.883-2.573-3.178-5.278-.88-10.612 9.015-2.592 4.807-6.584 11.89-8.873 15.74-2.288 3.85-7.003 12.4-10.476 19-3.474 6.6-9.35 17.625-13.06 24.5-3.71 6.875-11.233 21.05-16.72 31.5-5.486 10.45-15.94 30.25-23.23 44-20.796 39.216-21.406 40.369-27.53 52-3.185 6.05-7.01 13.25-8.498 16-1.489 2.75-5.757 10.85-9.485 18-3.728 7.15-8.462 16.15-10.52 20l-7.748 14.5c-8.129 15.21-23.222 44.027-32.734 62.5-5.382 10.45-12.145 23.5-15.03 29-6.484 12.36-29.863 57.517-42.973 83-5.377 10.45-11.005 21.25-12.509 24-3.346 6.121-17.562 33.818-38.496 75l-30.5 60c-8.107 15.95-22.28 43.85-31.496 62-18.358 36.155-34.075 66.878-44.507 87-3.707 7.15-11.806 22.9-17.998 35a9154.952 9154.952 0 0 1-18 35c-3.708 7.15-11.808 22.9-18 35-6.191 12.1-14.29 27.85-17.997 35a10556.72 10556.72 0 0 0-17.505 34c-5.92 11.55-14.245 27.75-18.498 36-4.253 8.25-12.577 24.45-18.497 36-5.921 11.55-13.798 26.85-17.505 34-3.707 7.15-11.807 22.9-18 35a15363.45 15363.45 0 0 1-19.001 37c-4.258 8.25-12.133 23.55-17.5 34-5.366 10.45-13.465 26.2-17.996 35-4.531 8.8-12.63 24.55-17.997 35-5.367 10.45-13.026 25.3-17.018 33-3.993 7.7-15.012 29.075-24.487 47.5-18.316 35.616-29.754 57.797-41.51 80.5-3.988 7.7-14.78 28.625-23.985 46.5a51473.607 51473.607 0 0 1-24.487 47.5c-4.263 8.25-12.281 23.775-17.817 34.5a16896.895 16896.895 0 0 1-20.21 39c-9.187 17.659-41.99 83.589-41.99 84.393 0 .183-3.093 6.807-6.874 14.72-20.267 42.416-59.976 125.863-72.708 152.793l-5.864 12.405-87.027-.657c-47.865-.362-120.327-.92-161.027-1.24-40.7-.32-88.499-.666-106.22-.768-39.86-.228-37.766.809-29.587-14.646 3.056-5.775 18.382-34.575 34.058-64a292888.585 292888.585 0 0 0 57.777-108.5c5.254-9.866 31.46-59.695 39.969-76 21.068-40.367 30.309-58.04 34.508-66 2.611-4.95 10.267-19.575 17.012-32.5 17.72-33.953 54.535-104.303 66.461-127 5.636-10.725 14.421-27.6 19.523-37.5 5.102-9.9 11.178-21.6 13.502-26 2.324-4.4 8.17-15.65 12.991-25s11.346-21.95 14.499-28c3.153-6.05 9.004-17.3 13.004-25 3.999-7.7 9.624-18.5 12.501-24 2.877-5.5 9.404-18.1 14.505-28 5.1-9.9 11.633-22.5 14.515-28 2.882-5.5 11.195-21.475 18.473-35.5 22.876-44.084 27.197-52.363 30.009-57.5 1.505-2.75 7.356-14 13-25 5.645-11 11.495-22.25 13-25 1.506-2.75 6.457-12.2 11.003-21 9.628-18.638 18.317-35.324 24.997-48 2.608-4.95 8.46-16.2 13.003-25 4.543-8.8 9.49-18.25 10.995-21 1.503-2.75 8.028-15.35 14.5-28 6.47-12.65 14.345-27.95 17.5-34 3.154-6.05 10.353-20 15.997-31 5.645-11 12.848-24.95 16.008-31 3.16-6.05 10.586-20.45 16.504-32 5.918-11.55 13.116-25.5 15.996-31 2.88-5.5 10.31-19.9 16.51-32 6.202-12.1 17.445-33.925 24.987-48.5 7.542-14.575 18.786-36.4 24.987-48.5 6.2-12.1 12.958-25.15 15.017-29 2.058-3.85 8.807-16.9 14.998-29 6.19-12.1 12.487-24.25 13.993-27 1.505-2.75 8.487-16.25 15.514-30 7.027-13.75 13.096-25.45 13.486-26 .39-.55 6.909-13.15 14.487-28 7.577-14.85 15.008-29.25 16.513-32 1.505-2.75 7.134-13.55 12.509-24s12.137-23.5 15.028-29c2.89-5.5 12-23.05 20.246-39 8.245-15.95 17.455-33.725 20.467-39.5 3.012-5.775 12.794-24.675 21.738-42 35.99-69.715 43.978-85.159 53.535-103.5 5.604-10.755 20.188-38.998 46.732-90.5 4.96-9.625 11.825-22.9 15.255-29.5 3.43-6.6 10.313-19.875 15.297-29.5s13.61-26.275 19.167-37c5.558-10.725 21.607-42.42 35.663-70.435 14.057-28.015 27.761-54.201 30.454-58.192 4.947-7.33 5.487-10.373 1.843-10.373-1.952 0-22.105 7.778-35 13.508-4.164 1.85-8.89 3.692-10.5 4.092-1.61.4-7.654 3.088-13.429 5.973-18.307 9.147-25.944 12.43-49 21.072-12.375 4.638-24.644 9.331-27.265 10.429-10.103 4.23-52.608 12.852-88.735 18l-35.5 5.06-38.5-.567c-43.01-.633-79.196-2.061-92-3.63-4.675-.573-13.225-2.176-19-3.562-5.775-1.385-12.075-2.314-14-2.063-6.03.787-18.713-1.258-27.274-4.396-4.524-1.659-10.476-3.607-13.226-4.328-2.75-.722-14.675-4.265-26.5-7.873-11.825-3.609-27.8-8.416-35.5-10.683-22.747-6.697-48.23-15.955-59.855-21.746-5.97-2.975-10.695-5.567-10.5-5.76.195-.194 19.973-16.029 43.951-35.19 40.548-32.401 44.533-35.323 57-41.8 7.372-3.83 18.354-9.58 24.404-12.778 29.31-15.49 44.801-22.665 73.666-34.116 40.736-16.162 48.012-18.96 55.834-21.48 13.029-4.196 51.397-15.162 53.049-15.162.933 0 3.753-.91 6.266-2.021 3.593-1.59 64-14.33 94.685-19.972 9.897-1.819 37.606-5.453 71.5-9.377 20.1-2.328 80.749-3.093 96.5-1.22 22.29 2.653 32.002 2.884 36 .857 4.033-2.044 5.097-5.944 2.643-9.69-.827-1.262-2.23-5.845-3.12-10.185-4.128-20.148-9.783-36.93-20.348-60.392-5.821-12.925-12.179-26.016-14.13-29.091-1.95-3.076-6.47-10.43-10.045-16.343-3.575-5.914-12.012-17.414-18.75-25.557l-12.25-14.806.057-5.851c.096-9.862 2.688-37.644 3.859-41.352.608-1.925 1.536-9.35 2.063-16.5 1.06-14.384 5.353-36.642 10.029-52 1.674-5.5 5.794-15.4 9.154-22 26.774-52.58 26.917-52.834 36.862-65.976 5.421-7.163 12.264-15.499 15.207-18.524 2.942-3.025 7.122-7.975 9.288-11 2.166-3.025 7.21-8.959 11.21-13.187 4-4.227 7.272-8.154 7.272-8.725 0-.571 3.712-5.47 8.25-10.885 7.709-9.201 14.4-15.744 21.33-20.857 2.702-1.995 2.8-2.28 1.3-3.834-1.482-1.537-1.992-1.55-6-.161-2.41.835-6.18 2.404-8.38 3.486-2.2 1.082-6.7 3.16-10 4.617-8.74 3.859-32.323 19.556-44.855 29.857-5.97 4.907-13.495 10.676-16.722 12.82-3.227 2.143-6.386 4.903-7.02 6.133-.634 1.23-9.81 11.011-20.391 21.736-19.221 19.482-25.933 27.683-46.802 57.18-8.293 11.723-10.73 16.161-17.021 31-8.416 19.853-14.073 38.85-15.913 53.433l-1.277 10.113-22.5-15.478c-19.363-13.32-25.636-17.01-45-26.475-12.375-6.049-24.3-11.791-26.5-12.76-5.891-2.596-46.903-21.796-62.5-29.259l-13.5-6.46-5.618-13.397c-5.812-13.858-6.12-15.18-11.986-51.397-1.07-6.6-2.181-17.81-2.471-24.911-.29-7.102-.929-13.662-1.42-14.58-.87-1.625-2.332-50.966-2.371-80.009-.017-12.918.335-15.999 3.231-28.234 1.788-7.553 4.575-17.65 6.193-22.437 3.34-9.88 3.598-12.54 1.392-14.37-1.941-1.612-2.304-1.244-9.919 10.041-4.958 7.348-10.831 18.674-19.965 38.5-5.21 11.307-9.183 23.997-16.126 51.5l-3.66 14.5.01 23.5c.01 12.925.402 37.9.882 55.5s.772 32.166.65 32.368c-.123.202-3.958-.336-8.522-1.196-43.151-8.132-37.67-7.534-71.3-7.781-29.761-.22-32.036-.098-56.966 3.037l-25.966 3.266-2.308-2.847c-1.27-1.566-10.236-12.895-19.926-25.176l-17.617-22.33-11.458-26.17c-18.65-42.599-19.564-45.132-26.633-73.787-8.68-35.186-10.908-51.387-8.599-62.51.998-4.809.941-5.835-.4-7.176-1.419-1.42-1.735-1.409-3.413.109-4.07 3.684-5.941 9.93-7.842 26.193-2.296 19.634-2.076 39.785.62 56.792 1.064 6.715 3.08 19.633 4.48 28.708 4.002 25.923 8.267 46.92 13.713 67.5 4.358 16.468 5.88 20.612 11.427 31.097l6.4 12.097-27.756 11.685c-24.462 10.298-30.425 13.284-50.256 25.165-12.375 7.415-26.775 16.645-32 20.513-21.577 15.972-21.3 15.8-24.452 15.197-4.016-.768-40.998-37.219-52-51.254-12.551-16.01-20.829-29.434-24.4-39.568-3.362-9.546-6.137-24.56-6.144-33.248-.002-2.923-.47-6.186-1.039-7.25-1.19-2.225-4.213-2.545-5.814-.616-3.01 3.627-6.126 40.836-4.287 51.182 3.858 21.7 6.596 31.24 14.295 49.796 2.691 6.488 6.525 16.163 8.519 21.5 4.891 13.095 11.364 22.476 25.086 36.361l11.52 11.658-20.392 22.27c-11.215 12.249-21.997 24.103-23.96 26.343-3.532 4.031-35.972 49.131-41.231 57.322-1.5 2.337-2.888 4.25-3.082 4.25-1.257 0-27.744-18.292-40.838-28.203-37.99-28.757-67.681-56.657-75.416-70.87-2.72-4.996-4.342-6.257-6.827-5.303-2.656 1.02-2.68 4.194-.116 14.836 1.75 7.26 4.525 14.633 8.955 23.781 3.53 7.293 7.597 16.076 9.038 19.519 3.198 7.643 8.022 15.604 20.144 33.24 7.816 11.373 12.324 16.519 28.61 32.66 21.476 21.284 22.724 22.395 31.5 28.056 10.6 6.837 10.486 4.144 1.226 28.976-4.472 11.994-8.769 23.833-9.548 26.308-3.858 12.265-7.044 79.181-4.413 92.7.514 2.64 1.134 6.935 1.377 9.545.511 5.479 2.499 4.503-18.81 9.23-6.6 1.465-15.376 3.518-19.5 4.563-9.879 2.502-29.578 4.354-38.987 3.666-9.378-.686-23.576-3.965-31.7-7.32-7.332-3.028-9.699-2.854-10.117.743-.255 2.189.972 3.675 7.585 9.191 8.295 6.919 24.624 16.726 35.358 21.236 3.498 1.47 11.22 5.136 17.159 8.146 13.648 6.918 32.701 13.882 43.701 15.973 4.675.89 9.283 2.346 10.238 3.237 1.74 1.624 4.972 12.638 6.188 21.09.633 4.402 3.672 14.438 9.842 32.5 1.69 4.95 5.472 13.785 8.403 19.633 2.931 5.848 5.33 10.923 5.33 11.277 0 .355 2.667 5.245 5.927 10.867 3.26 5.623 6.072 11.11 6.25 12.196.27 1.65-2.634 3.449-17.762 11-9.947 4.965-22.772 10.764-28.5 12.887-10.076 3.735-10.692 3.838-18.916 3.151-14.841-1.239-16.159-1.177-17.38.818-.947 1.547-.511 2.36 2.822 5.272 4.508 3.937 10.995 7.747 15.777 9.265 12.767 4.055 58.438 5.578 75.17 2.507 7.548-1.386 9.005-1.422 9.666-.24.429.766 4.237 6.03 8.464 11.696 8.13 10.901 23.962 28.428 39.882 44.151 9.35 9.234 9.599 9.598 9.565 14-.078 10.082-2.7 19.837-8.54 31.786-4.943 10.112-6.764 12.74-13.17 19.011-4.09 4.003-10.77 9.743-14.846 12.757-7.611 5.63-9.157 8.46-5.644 10.34 1.894 1.014 12.422.103 20.456-1.77 17.12-3.99 46.052-19.916 59.076-32.52l4.798-4.642 19.202 10.431c10.561 5.737 29.777 15.45 42.702 21.585 12.925 6.134 23.905 11.555 24.398 12.046.53.526-2.547 9.017-7.5 20.694-7.386 17.418-8.978 20.374-13.214 24.552-2.65 2.612-5.472 4.75-6.272 4.75-.8 0-1.975 1.142-2.61 2.537-.95 2.086-.86 2.832.505 4.198 2.654 2.654 15.086.168 25.096-5.02 10.11-5.24 25.844-20.715 33.167-32.62 3.304-5.37 5.425-7.875 6.43-7.593.825.232 10.22 2.009 20.878 3.949 17.657 3.214 21.608 3.581 44.5 4.136 23.042.56 26.786.401 45.209-1.908 19.43-2.435 20.753-2.75 40.5-9.621 11.227-3.907 22.213-7.942 24.413-8.966 2.2-1.024 10.75-4.88 19-8.57 22.385-10.011 26.3-12.14 47-25.557 19.2-12.444 44.585-31.989 71.934-55.385 8.213-7.026 15.863-13.353 17-14.06 24.55-15.266 34.924-21.496 35.25-21.17.821.821-19.973 44.91-30.728 65.15-13.407 25.23-14.199 26.469-33.647 52.662-14.126 19.024-16.35 21.522-28.075 31.532-29.238 24.96-30.771 26.133-41.234 31.54-5.775 2.984-14.775 7.877-20 10.873-5.225 2.997-13.87 7.358-19.21 9.693-5.341 2.335-15.466 7.105-22.5 10.6-10.647 5.29-17.9 7.871-43.29 15.402l-30.5 9.048-31.5 3.55c-23.689 2.669-41.418 3.974-71.5 5.262l-40 1.712-25-3.769c-61.701-9.303-59.62-8.89-83.545-16.53-37.491-11.973-30.805-9.175-81.955-34.299-31.873-15.656-36.19-18.066-42.26-23.597-3.717-3.388-8.23-6.775-10.03-7.527-1.798-.751-4.606-2.676-6.24-4.276-1.633-1.6-4.995-4.474-7.47-6.385-2.475-1.911-6.031-4.941-7.903-6.733-1.872-1.792-3.948-3.258-4.613-3.258-3.346 0-21.991-14.558-48.936-38.21L149.322 1172l-25.282-33.5-25.28-33.5-28.212-50c-43.435-76.983-40.414-71.126-43.258-83.87-9.25-41.451-13.583-63.261-13.05-65.686.33-1.5-.08-5.363-.91-8.585-1.98-7.692-8.512-53.49-9.178-64.359-.287-4.675-.678-13.45-.87-19.5-.191-6.05-.824-24.275-1.407-40.5-.582-16.225-1.308-44.24-1.612-62.255-.528-31.292-.44-33.541 1.968-50.365 1.386-9.685 2.806-18.072 3.155-18.637.6-.969 1.169-5.29 3.198-24.243.93-8.7 2.763-16.956 10.207-46 7.075-27.607 9.203-33.575 31.725-89 4.573-11.252 12.583-27.481 23.693-48 9.231-17.05 19.07-35.275 21.862-40.5 2.793-5.225 7.823-13.325 11.18-18 8.795-12.254 23.583-33.273 35.19-50.02 12.855-18.548 23.628-32.86 67.608-89.815 16.106-20.859 16.088-20.84 50.138-51.577 4.928-4.448 16.403-14.84 25.5-23.093 9.097-8.252 20.41-18.483 25.139-22.735 6.85-6.159 14.273-11.053 36.5-24.067 15.346-8.985 31.051-18.059 34.901-20.164 3.85-2.106 10.897-6.25 15.659-9.21 7.821-4.862 13.859-7.128 62.5-23.455l53.841-18.074 62.5-13.943c61.634-13.75 63.07-14.018 103.5-19.317C755.731.134 749.887.6 802.727.284l47.5-.284 30.5 5.282c35.33 6.117 51.031 9.22 81.61 16.121 34.674 7.827 40.23 9.435 67.89 19.655 14.3 5.283 32.525 12.007 40.5 14.94 35.196 12.95 36.578 13.594 112 52.216 7.975 4.084 22.271 12.681 31.769 19.106 9.497 6.424 25.278 17.08 35.069 23.68 16.989 11.453 19.553 13.652 56.232 48.231 35.255 33.238 39.546 37.646 51.93 53.35 7.425 9.415 18.225 23.081 24 30.37 9.602 12.119 34.076 48.71 79.317 118.59l29.133 45c6.572 10.152 13.943 22.059 16.379 26.459 11.516 20.8 18.474 34.501 20.22 39.817 1.051 3.2 2.757 7.025 3.79 8.5 1.033 1.476 3.334 5.322 5.113 8.546 1.78 3.225 4.707 7.793 6.506 10.15 1.8 2.357 4.7 7.819 6.444 12.137 3.848 9.525 6.739 16.29 11.493 26.894 1.983 4.425 3.605 8.387 3.605 8.805 0 .419.859 2.649 1.908 4.956 6.841 15.048 14.028 32.797 14.655 36.195.909 4.915 3.874 12.033 5.408 12.982.625.386 2.164 3.023 3.421 5.86 1.257 2.837 2.988 5.738 3.847 6.447.858.71 2.54 3.86 3.738 7 5.173 13.567 18.386 36.517 24.89 43.231 4.06 4.192 10.987 7.054 19.777 8.172 4.871.62 10.206 1.075 11.856 1.013 11.805-.449 12.657-.373 14.49 1.285 1.738 1.574 4.646 1.679 34.205 1.236 19.685-.294 33.282-.105 34.805.486 3.377 1.308 17.71 2.146 33.5 1.959 9.522-.113 15.542.37 22.5 1.807 5.225 1.08 11.3 1.94 13.5 1.913 4.28-.051 19.723 3.296 25.5 5.528 1.925.743 6.835 1.864 10.91 2.49 4.075.627 11.725 2.9 17 5.052a7563.962 7563.962 0 0 1 19.09 7.825c5.225 2.152 12.425 4.905 16 6.118 3.575 1.212 9.875 3.707 14 5.543 4.125 1.835 9.525 3.889 12 4.563 5.354 1.458 11.863 4.028 21.823 8.616 4.028 1.856 7.805 3.374 8.393 3.374 3.204 0 16.504 4.82 24.784 8.983 22.956 11.54 71.188 40.648 79.785 48.15 1.807 1.577 3.91 2.867 4.674 2.867.763 0 2.66 1.041 4.215 2.314 1.554 1.272 5.526 3.813 8.826 5.646 10.833 6.016 22.882 14.665 29.898 21.46 3.793 3.675 8.293 7.395 10 8.268 3.418 1.748 7.564 4.827 18.102 13.444 20.937 17.12 27.923 23.226 37 32.334 22.796 22.872 53.339 54.432 58.1 60.034 2.805 3.3 6.44 7.575 8.079 9.5 1.638 1.925 4.957 6.2 7.377 9.5 2.419 3.3 6.238 8.25 8.486 11 8.25 10.089 14.07 19.31 20.517 32.5 13.049 26.696 20.919 44.594 21.91 49.83.556 2.933 1.856 6.533 2.89 8 1.033 1.469 2.2 3.706 2.594 4.973.394 1.266 2.175 4.884 3.958 8.04 1.784 3.155 5.637 11.568 8.563 18.697l9.22 22.46c2.144 5.225 5.697 15.8 7.896 23.5 2.198 7.7 4.7 16.25 5.562 19 8.596 27.455 18.91 66.92 22.818 87.303 2.499 13.033 5.491 28.422 6.65 34.197 1.16 5.775 2.694 13.65 3.41 17.5.716 3.85 2.209 11.275 3.317 16.5 1.107 5.225 2.96 15.35 4.117 22.5 1.156 7.15 2.762 17.05 3.568 22 .807 4.95 1.887 11.925 2.402 15.5.514 3.575 2.556 15.5 4.537 26.5 1.981 11 4.912 27.65 6.513 37 7.834 45.753 11.186 65.217 13.518 78.5 2.55 14.525 8.137 52.484 19.426 132 5.064 35.673 14.793 103.205 24.057 167 1.158 7.975 3.198 21.25 4.533 29.5 2.246 13.875 9 56.937 13.569 86.5 1.062 6.875 2.814 17.45 3.892 23.5 1.079 6.05 4.018 23.15 6.532 38 2.513 14.85 5.436 31.95 6.494 38 1.058 6.05 3.943 22.925 6.41 37.5s6.775 40 9.574 56.5c10.224 60.265 11.906 70.297 14.424 86 1.411 8.8 4.837 29.95 7.613 47 2.776 17.05 8.189 50.575 12.029 74.5a35550.2 35550.2 0 0 0 9.428 58.5c3.529 21.636 8.123 50.027 10.478 64.75 5.038 31.497 6.328 39.518 9.533 59.25 1.875 11.55 4.122 28.2 4.991 37 .87 8.8 2.243 22.3 3.052 30 3.372 32.123 7.556 76.997 9.93 106.5 1.393 17.325 2.755 33.525 3.025 36 2.538 23.241 4.49 59.946 4.973 93.5 1.377 95.718 1.387 114.961.07 129.5-.721 7.975-1.362 14.569-1.423 14.652-.061.084-2.208-.479-4.77-1.25-2.563-.771-5.6-1.405-6.75-1.408-1.15 0-3.38-.678-4.956-1.5-1.575-.822-3.439-1.494-4.141-1.494-.703 0-3.53-2.025-6.283-4.5-2.753-2.475-5.671-4.5-6.486-4.5-.814 0-2.04-.675-2.725-1.5s-1.772-1.5-2.417-1.5c-.644 0-3.102-1.8-5.461-4-2.36-2.2-4.893-4-5.63-4-.737 0-5.312-4.322-10.166-9.604-4.854-5.282-11.751-12.57-15.326-16.194-6.252-6.337-7.813-8.351-9.851-12.702-.515-1.1-2.1-3.08-3.52-4.402-2.972-2.765-19.63-36.04-19.63-39.213 0-1.164-1.501-5.326-3.337-9.25-1.836-3.924-4.544-11.869-6.02-17.654-4.713-18.491-19.983-99.17-21.667-114.481-.544-4.95-1.208-10.125-1.475-11.5-.438-2.254-1.692-12.981-3.097-26.5-.286-2.75-.975-7.925-1.53-11.5-.556-3.575-1.866-13.925-2.911-23-4.04-35.055-6.07-48.577-7.888-52.5-1.02-2.2-2.397-5.716-3.062-7.813-1.91-6.022-10.52-18.073-17.303-24.217-8.372-7.583-21.587-14.082-32.71-16.087-9.562-1.723-25.602-1.2-32.13 1.05-8.153 2.809-19.462 10.137-26.37 17.087-8.447 8.5-13.752 17.26-16.944 27.98-2.603 8.744-7.603 36.856-7.574 42.583.01 1.97 1.369 7.783 3.019 12.917 1.65 5.134 3 9.877 3 10.54 0 2 8.113 19.81 10.003 21.96.967 1.1 3.875 6.275 6.462 11.5 2.586 5.225 5.726 10.625 6.976 12 2.244 2.469 10.704 15.151 13.34 19.998.746 1.374 1.925 3.174 2.619 4 .694.826 2.527 3.752 4.073 6.502 1.547 2.75 6.01 8.15 9.92 12 7.211 7.103 11.062 11.58 32.248 37.5 6.518 7.975 16.466 19.25 22.105 25.055 5.64 5.805 10.254 11.02 10.254 11.59 0 1.174 8.363 9.711 15.838 16.167 2.746 2.372 5.758 5.972 6.693 8 7.729 16.766 16.977 34.433 19.743 37.717 4.742 5.631 7.832 12.024 9.17 18.971 1.634 8.49 10.76 24.346 18.692 32.478 7.76 7.955 34.124 26.022 37.972 26.022 2.374 0 19.317 7.22 21.456 9.144 1.136 1.02 2.408 1.856 2.827 1.856.419 0 4.44 1.517 8.935 3.372 4.496 1.855 10.649 3.911 13.674 4.57 4.503.98 8.762 2.434 10.841 3.7.188.114-1.761 6.429-4.331 14.033-4.1 12.126-5.17 14.286-8.72 17.575l-4.047 3.75-31.122.113c-17.117.062-35.396.23-40.621.373-5.225.143-71.6.583-147.5.977s-139.575.789-141.5.877c-1.925.088-5.975-.333-9-.936zm-78-1276.292c0-.489-1.161-4.876-2.581-9.75s-3.851-13.587-5.404-19.362c-1.552-5.775-4.04-14.325-5.527-19-1.489-4.675-3.078-10.3-3.534-12.5-.455-2.2-1.932-6.925-3.282-10.5l-2.455-6.5-7.858-.682c-20.619-1.79-47.682-9.957-58.359-17.611-5.862-4.203-19.081-18.322-23.6-25.207-2.347-3.575-5.599-8.33-7.226-10.565-1.627-2.236-4.362-6.736-6.077-10-6.413-12.201-11.26-21.011-12.894-23.435-2.515-3.73-8.131-20.272-10.355-30.5-4.794-22.044-5.754-46.015-2.385-59.5 1.373-5.495 7.356-18.833 10.99-24.5 14.878-23.206 14.784-23.075 22.763-31.553 2.356-2.504 5.514-5.488 7.016-6.63l2.732-2.076-3.853-9.37c-3.674-8.937-8.546-20.17-13.728-31.65-1.31-2.904-2.383-5.501-2.383-5.771 0-.27-1.8-4.297-4-8.95s-4-8.703-4-9.001c0-.947-7.888-17.499-8.339-17.499-.404 0-6.28 2.147-23.16 8.463-3.85 1.44-8.35 3.234-10 3.987-1.65.752-5.816 2.503-9.257 3.891-3.441 1.389-7.491 3.483-9 4.654-4.299 3.336-8.995 7.172-19.161 15.65-5.18 4.32-11.318 9.43-13.64 11.355-2.323 1.925-5.027 5.3-6.01 7.5-.981 2.2-2.884 6.475-4.226 9.5a1081 1081 0 0 1-4.965 10.986c-5.19 11.284-8.103 53.318-5.226 75.44 4.254 32.723 4.493 34.073 8.333 47.074 5.212 17.647 5.949 19.454 14.449 35.406 4.277 8.027 8.884 16.71 10.24 19.295 1.354 2.586 10.73 14.185 20.836 25.776 19.869 22.79 17.074 20.42 49.626 42.082 7.15 4.758 15.925 10.602 19.5 12.986 11.723 7.817 27.906 18.404 32.244 21.094 2.341 1.45 11.456 7.102 20.256 12.558 8.8 5.457 17.575 10.644 19.5 11.528 1.925.884 11.6 5.276 21.5 9.76s20.7 9.455 24 11.046c6.274 3.026 8.5 3.571 8.5 2.08zm-43.291-132.676c1.215-.785 2.703-3.117 3.307-5.182 1.037-3.541.355-5.824-12.02-40.254-7.214-20.075-14.618-40.775-16.451-46-1.834-5.225-3.831-10.767-4.44-12.315-.607-1.548-1.105-3.77-1.105-4.938 0-1.168-1.012-3.61-2.25-5.428-1.96-2.88-2.806-3.306-6.565-3.312-5.893-.01-7.546 1.096-12.084 8.08-4.418 6.8-5.828 12.848-6.582 28.243-.463 9.46-.185 11.775 2.97 24.67 1.624 6.644 9.992 25 11.396 25 .427 0 1.398 1.238 2.156 2.75.758 1.513 3.759 5.764 6.669 9.447 2.91 3.683 5.29 7.156 5.29 7.717 0 1.729 10.63 9.156 16.726 11.687 5.979 2.482 8.948 2.445 12.983-.165z"/></svg>